# xmcd
#
# Track frame offsets: 
#        150
#        18005
#        35691
#        61573
#        82928
#        105836
#        124684
#        140939
#        151067
#        173297
#        187628
#        218610
#
# Disc length: 3099 seconds
#
# Revision: 0
# Processed by: cddbd v1.5.2PL0 Copyright (c) Steve Scherf et al.
# Submitted via: ExactAudioCopy v1.0b4
#
DISCID=7d0c190c
DTITLE=Lenny Henry - New Millennium Blues
DYEAR=2015
DGENRE=Blues
TTITLE0=New Millennium Blues
TTITLE1=Hoochie Coochie Man
TTITLE2=The Cops Don't Know
TTITLE3=Who Is He (And What Is He To You)?
TTITLE4=If That's Not Good Enough
TTITLE5=The Stealer
TTITLE6=Daughter Of A Preacher Man
TTITLE7=You're So Fine
TTITLE8=Back Door Man
TTITLE9=Shame Shame Shame
TTITLE10=What Kind Of Blues
TTITLE11=Down In The Bottom
EXTD=
EXTT0=
EXTT1=
EXTT2=
EXTT3=
EXTT4=
EXTT5=
EXTT6=
EXTT7=
EXTT8=
EXTT9=
EXTT10=
EXTT11=
PLAYORDER=
